<mxfile host="app.diagrams.net" modified="2020-11-16T18:59:03.671Z" agent="5.0 (Macintosh; Intel Mac OS X 10_15_3) AppleWebKit/537.36 (KHTML, like Gecko) Chrome/86.0.4240.193 Safari/537.36" etag="e_hGtphVU5WM7metI7mx" version="13.9.9" type="github">
  <diagram id="R2lEEEUBdFMjLlhIrx00" name="Page-1">
    <mxGraphModel dx="1113" dy="760" grid="1" gridSize="10" guides="1" tooltips="1" connect="1" arrows="1" fold="1" page="1" pageScale="1" pageWidth="1100" pageHeight="850" math="0" shadow="0" extFonts="Permanent Marker^https://fonts.googleapis.com/css?family=Permanent+Marker">
      <root>
        <mxCell id="0" />
        <mxCell id="1" parent="0" />
        <mxCell id="Tkre6pVUtCFZjQlAkvmW-39" value="&lt;u&gt;StudentID&lt;/u&gt;" style="ellipse;whiteSpace=wrap;html=1;" vertex="1" parent="1">
          <mxGeometry x="840" y="250" width="80" height="40" as="geometry" />
        </mxCell>
        <mxCell id="Tkre6pVUtCFZjQlAkvmW-44" value="Email" style="ellipse;shape=doubleEllipse;margin=3;whiteSpace=wrap;html=1;align=center;" vertex="1" parent="1">
          <mxGeometry x="850" y="360" width="100" height="40" as="geometry" />
        </mxCell>
        <mxCell id="Tkre6pVUtCFZjQlAkvmW-45" value="Name" style="ellipse;whiteSpace=wrap;html=1;align=center;" vertex="1" parent="1">
          <mxGeometry x="860" y="300" width="100" height="40" as="geometry" />
        </mxCell>
        <mxCell id="Tkre6pVUtCFZjQlAkvmW-46" value="Student" style="whiteSpace=wrap;html=1;align=center;" vertex="1" parent="1">
          <mxGeometry x="700" y="300" width="100" height="40" as="geometry" />
        </mxCell>
        <mxCell id="Tkre6pVUtCFZjQlAkvmW-47" value="FirstName" style="ellipse;whiteSpace=wrap;html=1;align=center;" vertex="1" parent="1">
          <mxGeometry x="990" y="270" width="100" height="40" as="geometry" />
        </mxCell>
        <mxCell id="Tkre6pVUtCFZjQlAkvmW-48" value="LastName" style="ellipse;whiteSpace=wrap;html=1;align=center;" vertex="1" parent="1">
          <mxGeometry x="990" y="320" width="100" height="40" as="geometry" />
        </mxCell>
        <mxCell id="Tkre6pVUtCFZjQlAkvmW-49" value="PostalAddress" style="ellipse;whiteSpace=wrap;html=1;align=center;" vertex="1" parent="1">
          <mxGeometry x="510" y="265" width="100" height="40" as="geometry" />
        </mxCell>
        <mxCell id="Tkre6pVUtCFZjQlAkvmW-50" value="StreetAddress" style="ellipse;whiteSpace=wrap;html=1;align=center;" vertex="1" parent="1">
          <mxGeometry x="560" y="205" width="100" height="40" as="geometry" />
        </mxCell>
        <mxCell id="Tkre6pVUtCFZjQlAkvmW-51" value="City" style="ellipse;whiteSpace=wrap;html=1;align=center;" vertex="1" parent="1">
          <mxGeometry x="450" y="205" width="100" height="40" as="geometry" />
        </mxCell>
        <mxCell id="Tkre6pVUtCFZjQlAkvmW-52" value="ZIP" style="ellipse;whiteSpace=wrap;html=1;align=center;" vertex="1" parent="1">
          <mxGeometry x="390" y="245" width="100" height="40" as="geometry" />
        </mxCell>
        <mxCell id="Tkre6pVUtCFZjQlAkvmW-53" value="County" style="ellipse;whiteSpace=wrap;html=1;align=center;" vertex="1" parent="1">
          <mxGeometry x="390" y="295" width="100" height="40" as="geometry" />
        </mxCell>
        <mxCell id="Tkre6pVUtCFZjQlAkvmW-55" value="Admission" style="whiteSpace=wrap;html=1;align=center;" vertex="1" parent="1">
          <mxGeometry x="880" y="110" width="100" height="40" as="geometry" />
        </mxCell>
        <mxCell id="Tkre6pVUtCFZjQlAkvmW-56" value="AdmissionID" style="ellipse;whiteSpace=wrap;html=1;align=center;fontStyle=4;" vertex="1" parent="1">
          <mxGeometry x="830" y="30" width="100" height="40" as="geometry" />
        </mxCell>
        <mxCell id="Tkre6pVUtCFZjQlAkvmW-57" value="Phone" style="ellipse;shape=doubleEllipse;margin=3;whiteSpace=wrap;html=1;align=center;" vertex="1" parent="1">
          <mxGeometry x="590" y="360" width="100" height="40" as="geometry" />
        </mxCell>
        <mxCell id="Tkre6pVUtCFZjQlAkvmW-58" value="HighestEdu" style="ellipse;whiteSpace=wrap;html=1;align=center;" vertex="1" parent="1">
          <mxGeometry x="950" y="10" width="100" height="40" as="geometry" />
        </mxCell>
        <mxCell id="Tkre6pVUtCFZjQlAkvmW-59" value="Application completion?" style="shape=rhombus;perimeter=rhombusPerimeter;whiteSpace=wrap;html=1;align=center;" vertex="1" parent="1">
          <mxGeometry x="760" y="160" width="100" height="70" as="geometry" />
        </mxCell>
        <mxCell id="Tkre6pVUtCFZjQlAkvmW-60" value="" style="endArrow=none;html=1;rounded=0;exitX=0.5;exitY=1;exitDx=0;exitDy=0;entryX=1;entryY=0.5;entryDx=0;entryDy=0;" edge="1" parent="1" source="Tkre6pVUtCFZjQlAkvmW-55" target="Tkre6pVUtCFZjQlAkvmW-59">
          <mxGeometry relative="1" as="geometry">
            <mxPoint x="860" y="190" as="sourcePoint" />
            <mxPoint x="1020" y="190" as="targetPoint" />
          </mxGeometry>
        </mxCell>
        <mxCell id="Tkre6pVUtCFZjQlAkvmW-61" value="1" style="resizable=0;html=1;align=right;verticalAlign=bottom;" connectable="0" vertex="1" parent="Tkre6pVUtCFZjQlAkvmW-60">
          <mxGeometry x="1" relative="1" as="geometry">
            <mxPoint x="10.18" y="-15.1" as="offset" />
          </mxGeometry>
        </mxCell>
        <mxCell id="Tkre6pVUtCFZjQlAkvmW-64" value="" style="endArrow=none;html=1;rounded=0;entryX=0;entryY=0.5;entryDx=0;entryDy=0;exitX=0.5;exitY=0;exitDx=0;exitDy=0;" edge="1" parent="1" source="Tkre6pVUtCFZjQlAkvmW-46" target="Tkre6pVUtCFZjQlAkvmW-59">
          <mxGeometry relative="1" as="geometry">
            <mxPoint x="690" y="290" as="sourcePoint" />
            <mxPoint x="850" y="290" as="targetPoint" />
          </mxGeometry>
        </mxCell>
        <mxCell id="Tkre6pVUtCFZjQlAkvmW-65" value="1" style="resizable=0;html=1;align=right;verticalAlign=bottom;" connectable="0" vertex="1" parent="Tkre6pVUtCFZjQlAkvmW-64">
          <mxGeometry x="1" relative="1" as="geometry">
            <mxPoint x="-9.950000000000001" y="19.85" as="offset" />
          </mxGeometry>
        </mxCell>
        <mxCell id="Tkre6pVUtCFZjQlAkvmW-66" value="AppSubDate" style="ellipse;whiteSpace=wrap;html=1;align=center;" vertex="1" parent="1">
          <mxGeometry x="995" y="60" width="100" height="40" as="geometry" />
        </mxCell>
        <mxCell id="Tkre6pVUtCFZjQlAkvmW-67" value="Name" style="ellipse;whiteSpace=wrap;html=1;align=center;" vertex="1" parent="1">
          <mxGeometry x="900" y="180" width="90" height="42.5" as="geometry" />
        </mxCell>
        <mxCell id="Tkre6pVUtCFZjQlAkvmW-68" value="LastName" style="ellipse;whiteSpace=wrap;html=1;align=center;" vertex="1" parent="1">
          <mxGeometry x="1005" y="170" width="90" height="40" as="geometry" />
        </mxCell>
        <mxCell id="Tkre6pVUtCFZjQlAkvmW-69" value="FirstName" style="ellipse;whiteSpace=wrap;html=1;align=center;" vertex="1" parent="1">
          <mxGeometry x="1005" y="120" width="90" height="40" as="geometry" />
        </mxCell>
        <mxCell id="Tkre6pVUtCFZjQlAkvmW-70" value="Advisor" style="whiteSpace=wrap;html=1;align=center;" vertex="1" parent="1">
          <mxGeometry x="550" y="100" width="100" height="40" as="geometry" />
        </mxCell>
        <mxCell id="Tkre6pVUtCFZjQlAkvmW-71" value="AdvisorID" style="ellipse;whiteSpace=wrap;html=1;align=center;fontStyle=4;" vertex="1" parent="1">
          <mxGeometry x="480" y="20" width="100" height="40" as="geometry" />
        </mxCell>
        <mxCell id="Tkre6pVUtCFZjQlAkvmW-72" value="Name" style="ellipse;whiteSpace=wrap;html=1;align=center;" vertex="1" parent="1">
          <mxGeometry x="670" y="60" width="100" height="40" as="geometry" />
        </mxCell>
        <mxCell id="Tkre6pVUtCFZjQlAkvmW-74" value="FirstName" style="ellipse;whiteSpace=wrap;html=1;align=center;" vertex="1" parent="1">
          <mxGeometry x="590" y="20" width="100" height="40" as="geometry" />
        </mxCell>
        <mxCell id="Tkre6pVUtCFZjQlAkvmW-75" value="LastName" style="ellipse;whiteSpace=wrap;html=1;align=center;" vertex="1" parent="1">
          <mxGeometry x="690" width="100" height="40" as="geometry" />
        </mxCell>
        <mxCell id="Tkre6pVUtCFZjQlAkvmW-76" value="Attribute" style="ellipse;whiteSpace=wrap;html=1;align=center;" vertex="1" parent="1">
          <mxGeometry x="410" y="70" width="100" height="40" as="geometry" />
        </mxCell>
        <mxCell id="Tkre6pVUtCFZjQlAkvmW-77" value="Entity" style="whiteSpace=wrap;html=1;align=center;" vertex="1" parent="1">
          <mxGeometry x="190" y="120" width="100" height="40" as="geometry" />
        </mxCell>
        <mxCell id="Tkre6pVUtCFZjQlAkvmW-78" value="" style="edgeStyle=entityRelationEdgeStyle;fontSize=12;html=1;endArrow=ERmandOne;startArrow=ERmandOne;exitX=1;exitY=0.5;exitDx=0;exitDy=0;entryX=0;entryY=0.5;entryDx=0;entryDy=0;" edge="1" parent="1" source="Tkre6pVUtCFZjQlAkvmW-70" target="Tkre6pVUtCFZjQlAkvmW-46">
          <mxGeometry width="100" height="100" relative="1" as="geometry">
            <mxPoint x="630" y="295" as="sourcePoint" />
            <mxPoint x="720" y="300" as="targetPoint" />
          </mxGeometry>
        </mxCell>
      </root>
    </mxGraphModel>
  </diagram>
</mxfile>
